<mxfile host="app.diagrams.net" modified="2021-02-16T15:25:41.544Z" agent="5.0 (X11)" etag="1dePmoq5fpstvMqGsDwo" version="14.3.2" type="github">
  <diagram id="duq3SMJ5PLdFF18sFDb4" name="Page-1">
    <mxGraphModel dx="474" dy="326" grid="1" gridSize="10" guides="1" tooltips="1" connect="1" arrows="1" fold="1" page="1" pageScale="1" pageWidth="850" pageHeight="1100" math="0" shadow="0">
      <root>
        <mxCell id="0" />
        <mxCell id="1" parent="0" />
        <mxCell id="i2j1BiDpDmCEEccpqBvd-1" value="DL" style="rounded=1;whiteSpace=wrap;html=1;fillColor=#f8cecc;strokeColor=#b85450;" vertex="1" parent="1">
          <mxGeometry x="160" y="190" width="70" height="30" as="geometry" />
        </mxCell>
        <mxCell id="i2j1BiDpDmCEEccpqBvd-2" value="FL" style="rounded=1;whiteSpace=wrap;html=1;fillColor=#f8cecc;strokeColor=#b85450;" vertex="1" parent="1">
          <mxGeometry x="160" y="240" width="70" height="30" as="geometry" />
        </mxCell>
        <mxCell id="i2j1BiDpDmCEEccpqBvd-3" value="Deployment" style="shape=step;perimeter=stepPerimeter;whiteSpace=wrap;html=1;fixedSize=1;fillColor=#dae8fc;strokeColor=#6c8ebf;" vertex="1" parent="1">
          <mxGeometry x="240" y="160" width="110" height="140" as="geometry" />
        </mxCell>
        <mxCell id="i2j1BiDpDmCEEccpqBvd-4" value="Test bed 1" style="shape=process;whiteSpace=wrap;html=1;backgroundOutline=1;fillColor=#dae8fc;strokeColor=#6c8ebf;" vertex="1" parent="1">
          <mxGeometry x="400" y="190" width="120" height="30" as="geometry" />
        </mxCell>
        <mxCell id="i2j1BiDpDmCEEccpqBvd-5" value="Test bed 2" style="shape=process;whiteSpace=wrap;html=1;backgroundOutline=1;fillColor=#f8cecc;strokeColor=#b85450;" vertex="1" parent="1">
          <mxGeometry x="400" y="250" width="120" height="30" as="geometry" />
        </mxCell>
        <mxCell id="i2j1BiDpDmCEEccpqBvd-6" value="" style="shape=flexArrow;endArrow=classic;html=1;exitX=1;exitY=0.5;exitDx=0;exitDy=0;entryX=0;entryY=0.75;entryDx=0;entryDy=0;width=5;endSize=3.48;endWidth=8;" edge="1" parent="1" source="i2j1BiDpDmCEEccpqBvd-3" target="i2j1BiDpDmCEEccpqBvd-4">
          <mxGeometry width="50" height="50" relative="1" as="geometry">
            <mxPoint x="400" y="380" as="sourcePoint" />
            <mxPoint x="450" y="330" as="targetPoint" />
          </mxGeometry>
        </mxCell>
        <mxCell id="i2j1BiDpDmCEEccpqBvd-9" value="" style="shape=flexArrow;endArrow=classic;html=1;width=5;endSize=3.48;endWidth=8;fillColor=#ffffff;" edge="1" parent="1">
          <mxGeometry width="50" height="50" relative="1" as="geometry">
            <mxPoint x="350" y="230" as="sourcePoint" />
            <mxPoint x="400" y="260" as="targetPoint" />
          </mxGeometry>
        </mxCell>
        <mxCell id="i2j1BiDpDmCEEccpqBvd-11" value="" style="rounded=1;whiteSpace=wrap;html=1;fillColor=#f8cecc;strokeColor=#b85450;" vertex="1" parent="1">
          <mxGeometry x="190" y="90" width="30" height="20" as="geometry" />
        </mxCell>
        <mxCell id="i2j1BiDpDmCEEccpqBvd-12" value="&lt;div align=&quot;left&quot;&gt;French&lt;/div&gt;" style="text;html=1;strokeColor=none;fillColor=none;align=left;verticalAlign=middle;whiteSpace=wrap;rounded=0;" vertex="1" parent="1">
          <mxGeometry x="230" y="90" width="40" height="20" as="geometry" />
        </mxCell>
        <mxCell id="i2j1BiDpDmCEEccpqBvd-13" value="" style="rounded=1;whiteSpace=wrap;html=1;fillColor=#dae8fc;strokeColor=#6c8ebf;" vertex="1" parent="1">
          <mxGeometry x="190" y="120" width="30" height="20" as="geometry" />
        </mxCell>
        <mxCell id="i2j1BiDpDmCEEccpqBvd-14" value="&lt;div align=&quot;left&quot;&gt;German&lt;/div&gt;" style="text;html=1;strokeColor=none;fillColor=none;align=left;verticalAlign=middle;whiteSpace=wrap;rounded=0;" vertex="1" parent="1">
          <mxGeometry x="230" y="120" width="40" height="20" as="geometry" />
        </mxCell>
      </root>
    </mxGraphModel>
  </diagram>
</mxfile>
